<svg xmlns="http://www.w3.org/2000/svg" viewBox="0 0 1336 407"><defs><style>.cls-1,.cls-3{fill:none;stroke:gray;stroke-miterlimit:10;}.cls-1{stroke-width:5px;}.cls-2{fill:#fff;}.cls-3{stroke-width:18px;}</style></defs><g id="Camada_3" data-name="Camada 3"><path class="cls-1" d="M622,583.56" transform="translate(-260 -269)"/><path class="cls-1" d="M721.32,373.88" transform="translate(-260 -269)"/><polygon class="cls-2" points="474 136 542 296.43 642 59 722 59 722 399 642 399 642 209 574 399 514 399 442 209.48 474 136"/><polygon class="cls-2" points="762 59 842 59 842 209.48 962 209 962 59 1042 59 1042 399 962 399 962 259 842 259 842 399 762 399 762 59"/><polygon class="cls-3" points="1087 98 1327 209 1327 259 1087 359 1087 319 1289.71 229 1087 139 1087 98"/><polygon class="cls-3" points="249 98 9 209 9 259 249 359 249 319 46.29 229 249 139 249 98"/><polyline class="cls-3" points="492.57 96.91 534.21 9 493.26 9 309 398 349.95 398 492.57 96.91"/></g></svg>